PathFileType	4	(X/Y/Z)	\\Move.snu.ac.kr\motion\Animal\091204_091205_Bird\091205_bird\Project 2\Capture day 2\Session 1\pigeon_027.trc
DataRate	CameraRate	NumFrames	NumMarkers	Units	OrigDataRate	OrigDataStartFrame	OrigNumFrames
240.0	240.0	12	14	mm	240.0	199	2723
Frame#	Time	14MarkersBird:Head			14MarkersBird:C_back			14MarkersBird:Spine			14MarkersBird:L-shoulder			14MarkersBird:L-elbow			14MarkersBird:L-wrist			14MarkersBird:L-hand			14MarkersBird:R-shoulder			14MarkersBird:R-elbow			14MarkersBird:R-Wrist			14MarkersBird:R-hand			14MarkersBird:C_Tail			14MarkersBird:L-Tale			14MarkersBird:R-Tale			
		X1	Y1	Z1	X2	Y2	Z2	X3	Y3	Z3	X4	Y4	Z4	X5	Y5	Z5	X6	Y6	Z6	X7	Y7	Z7	X8	Y8	Z8	X9	Y9	Z9	X10	Y10	Z10	X11	Y11	Z11	X12	Y12	Z12	X13	Y13	Z13	X14	Y14	Z14	

1612	6.713	-1088.94214	1167.18481	1305.29138	-1063.19397	1176.89136	1248.70886	-1037.57935	1170.22485	1200.15308	-1055.94690	1172.54419	1284.71118	-1023.46497	1175.65820	1266.01208	-1034.07556	1173.95496	1307.21118	-1039.25525	1152.70984	1323.06360	-1095.73022	1163.37622	1265.71985	-1103.54102	1162.63232	1233.14050	-1123.21521	1156.78418	1267.53882	-1127.03333	1125.92773	1291.13330	-980.22546	1099.69604	1113.20508	-935.31335	1138.18616	1206.64929	-1099.08032	1111.64600	1122.76050	
1613	6.717	-1093.55005	1162.46936	1316.73145	-1067.86108	1171.07764	1260.34070	-1042.07092	1164.76843	1211.76746	-1060.41064	1167.24402	1295.57458	-1030.17407	1175.27930	1272.33765	-1035.99060	1178.37878	1314.29041	-1035.71899	1156.91931	1330.00854	-1099.65869	1158.62231	1276.57910	-1103.75684	1163.93250	1241.44702	-1129.23120	1160.44006	1271.99377	-1135.85059	1128.34680	1291.61938	-983.95782	1092.10828	1126.74390	-939.82294	1134.33374	1219.48315	-1105.33020	1107.80225	1135.04700	
1614	6.721	-1098.20300	1157.68152	1328.06897	-1072.24670	1164.98718	1271.77234	-1046.48328	1159.06433	1223.43787	-1064.94397	1161.88818	1306.36389	-1038.47302	1174.03455	1278.65649	-1039.17395	1182.59558	1320.30737	-1031.21460	1161.89673	1334.24573	-1103.28955	1154.18530	1287.43262	-1102.52441	1165.04980	1251.30603	-1133.61108	1164.48010	1276.59143	-1144.46436	1131.49683	1289.08728	-987.18225	1084.75342	1140.51453	-944.26666	1131.29761	1232.87512	-1112.02173	1105.04297	1147.13000	
1615	6.725	-1102.88953	1152.81982	1339.31885	-1076.07117	1158.56750	1282.79846	-1050.79773	1153.09290	1235.11768	-1069.56140	1156.60657	1317.20764	-1047.81262	1171.41797	1285.36877	-1044.21680	1186.08118	1325.44922	-1027.91846	1168.12903	1335.33459	-1106.63928	1150.14368	1298.48779	-1100.55969	1165.12000	1262.90479	-1135.86255	1168.75818	1282.31421	-1151.45520	1136.80127	1284.76160	-990.07318	1077.91492	1154.15869	-948.72772	1128.48535	1246.61462	-1118.66663	1102.78870	1158.97107	
1616	6.729	-1107.62561	1147.90283	1350.52283	-1079.19800	1151.74341	1293.33972	-1055.03699	1146.87622	1246.75476	-1074.24915	1151.42139	1328.16931	-1057.33667	1167.43677	1292.93457	-1050.86658	1188.36548	1330.29016	-1027.76611	1175.52710	1334.00012	-1109.86853	1146.28125	1309.82324	-1098.84668	1163.63232	1275.93420	-1136.30151	1172.70496	1289.70862	-1155.70923	1145.15552	1280.48157	-992.81317	1071.77612	1167.19006	-953.25208	1125.74231	1260.20227	-1124.70251	1100.58191	1170.39905	
1617	6.733	-1112.41370	1142.98108	1361.65723	-1082.03394	1144.80017	1303.66919	-1059.21533	1140.44897	1258.25244	-1078.93262	1146.23669	1339.20044	-1066.22754	1162.53918	1301.76953	-1058.14478	1189.27612	1335.60535	-1031.72498	1183.43408	1331.96667	-1113.23145	1142.20239	1321.29749	-1098.33887	1160.63684	1289.70056	-1135.97839	1175.65173	1298.69287	-1156.70190	1156.30139	1278.23792	-995.58099	1066.41321	1179.15198	-957.84631	1123.30762	1273.02173	-1129.66541	1098.21155	1181.18787	
1618	6.738	-1117.22290	1138.08374	1372.67957	-1085.33313	1138.30969	1314.25757	-1063.26868	1133.82910	1269.46008	-1083.49182	1140.91846	1350.21411	-1073.94983	1157.34998	1312.10962	-1064.76782	1188.94507	1342.12781	-1039.34448	1190.88562	1331.38257	-1116.96936	1137.58386	1332.67139	-1099.67261	1156.67224	1303.38892	-1136.29553	1177.16479	1308.68530	-1155.00354	1168.79175	1279.57922	-998.42633	1061.85486	1189.92566	-962.50964	1121.32642	1284.71057	-1133.34351	1095.49768	1191.27405	
1619	6.742	-1121.99927	1133.19482	1383.59412	-1089.63867	1132.72534	1325.40308	-1067.09998	1126.97327	1280.29712	-1087.82813	1135.42871	1361.17407	-1080.28467	1152.36902	1323.89026	-1069.63672	1187.49744	1350.35901	-1048.83337	1196.85254	1334.23096	-1121.22937	1132.32898	1343.76270	-1103.04944	1152.38098	1316.40491	-1138.51624	1176.97217	1318.89111	-1152.61963	1180.41565	1285.04980	-1001.27185	1058.09192	1199.79004	-967.22943	1119.39661	1295.47791	-1135.93982	1091.99048	1200.89880	
1620	6.746	-1126.67529	1128.30859	1394.41699	-1094.96472	1128.13135	1337.02441	-1070.73413	1119.82312	1290.84692	-1091.90369	1129.86218	1372.07886	-1085.16760	1147.78040	1336.71277	-1072.15784	1184.74524	1360.49487	-1057.51831	1200.39868	1341.83728	-1126.00671	1126.54700	1354.48755	-1108.40723	1148.05908	1328.53540	-1143.40808	1174.69214	1328.61597	-1152.60242	1188.68970	1293.90100	-1004.10144	1054.99097	1209.18079	-971.97375	1116.72656	1305.98169	-1138.14807	1086.97778	1210.56067	
1621	6.750	-1131.19885	1123.45532	1405.14563	-1100.67041	1124.04517	1348.64893	-1074.34631	1112.40613	1301.36414	-1095.75366	1124.35693	1382.90588	-1088.52698	1143.40186	1349.98108	-1072.35303	1180.21899	1372.47876	-1062.72949	1200.82629	1354.45654	-1131.11694	1120.45557	1364.85596	-1115.55542	1143.53125	1339.78638	-1151.06970	1169.78333	1337.54004	-1157.74548	1191.39661	1304.42725	-1007.09430	1052.19312	1218.47021	-976.72015	1112.73474	1316.85242	-1140.94250	1079.92017	1220.83191	
1622	6.754	-1135.58252	1118.69324	1415.76221	-1105.83398	1119.67969	1359.71484	-1078.06958	1105.04846	1311.91577	-1099.49377	1119.01904	1393.61499	-1090.40527	1138.87036	1363.28906	-1070.73572	1173.48523	1386.17090	-1063.04797	1197.65723	1371.29871	-1136.27563	1114.32483	1374.99548	-1124.13684	1138.35901	1350.08423	-1160.98572	1161.83044	1345.86243	-1169.01563	1187.13672	1315.02856	-1010.51471	1049.09790	1227.94434	-981.48212	1107.41992	1328.31934	-1145.10242	1070.93811	1232.15234	
1623	6.758	-1139.90100	1114.09680	1426.27515	-1110.08154	1114.71362	1370.08569	-1081.89490	1098.33972	1322.17883	-1103.28638	1113.91772	1404.19604	-1091.07056	1133.87134	1376.71936	-1068.16479	1164.40051	1401.47827	-1059.12854	1190.51770	1391.21375	-1141.29761	1108.40857	1385.13037	-1133.57300	1132.06055	1359.36157	-1172.30505	1150.84558	1354.23950	-1185.13232	1175.68176	1325.36401	-1014.52783	1044.99036	1237.83044	-986.26501	1101.17322	1340.18274	-1150.80994	1060.81616	1244.65503	
